<?xml version="1.0" encoding="UTF-8" standalone="no"?>
<svg width="300px" height="300px" viewBox="0 0 300 300" version="1.1" xmlns="http://www.w3.org/2000/svg" xmlns:xlink="http://www.w3.org/1999/xlink">
    <!-- Generator: Sketch 3.6.1 (26313) - http://www.bohemiancoding.com/sketch -->
    <title>support</title>
    <desc>Created with Sketch.</desc>
    <defs></defs>
    <g id="B2B" stroke="none" stroke-width="1" fill="none" fill-rule="evenodd">
        <g id="support" fill="#C555B6">
            <g id="noun_7860_cc" transform="translate(50.000000, 50.000000)">
                <g id="Group">
                    <path d="M117.548936,62.7468085 C116.631915,63.5808511 101.67234,76.9574468 83.1808511,93.4893617 C86.1276596,97.0787234 89.5808511,100.93617 93.6638298,105.021277 C98.8702128,110.208511 103.717021,114.408511 108.097872,117.808511 C125.93617,97.8553191 140.597872,81.4638298 141.351064,80.6297872 C143.351064,78.4297872 144.953191,79.1 145.821277,79.3468085 C160.493617,83.5 177.048936,79.8404255 184.604255,64.087234 C191.580851,49.5319149 185.876596,38.3085106 181.225532,30.5553191 C180.110638,28.6723404 178.319149,29.8021277 177.851064,30.7893617 C177.357447,31.7893617 168.980851,49.2744681 168.980851,49.2744681 C166.742553,53.9574468 161.261702,57.4638298 150.295745,52.2148936 C139.331915,46.9553191 138.659574,40.4851064 140.906383,35.8148936 C140.906383,35.8148936 148.729787,19.506383 149.776596,17.3319149 C150.814894,15.1425532 149.22766,14.5893617 148.274468,14.7191489 C139.295745,15.893617 126.923404,18.4957447 119.93617,33.0723404 C115.923404,41.4276596 116.165957,49.6148936 119.123404,56.8042553 C119.559574,57.887234 120.06383,60.5106383 117.548936,62.7468085 L117.548936,62.7468085 Z M50.6425532,148.046809 C46.2361702,143.634043 41.912766,138.974468 37.7255319,134.140426 C21.6595745,148.506383 9.58085106,159.308511 9.58085106,159.308511 C8.95957447,159.870213 8.34680851,160.485106 7.77021277,161.106383 C-0.689361702,170.578723 0.127659574,185.095745 9.58085106,193.546809 C19.0361702,202.004255 33.5489362,201.182979 42.0021277,191.731915 C42.0021277,191.731915 52.8446809,179.602128 67.3574468,163.36383 C61.5255319,158.43617 55.8957447,153.295745 50.6425532,148.046809 L50.6425532,148.046809 Z M19.8702128,11.812766 C2.85106383,29.1212766 1.92340426,51.0276596 1.92340426,51.0276596 C6.17659574,72.2765957 29.912766,110.995745 58.8042553,139.870213 C87.6829787,168.768085 126.393617,192.508511 147.657447,196.742553 C147.657447,196.742553 169.568085,195.83617 186.861702,178.8 L186.876596,178.823404 L197.07234,168.63617 C198.417021,167.293617 198.417021,165.070213 197.07234,163.72766 L153.838298,120.491489 C152.480851,119.148936 150.270213,119.148936 148.929787,120.491489 L138.738298,130.689362 L138.76383,130.72766 L129.182979,142.597872 C129.182979,142.597872 111.017021,138.680851 85.5085106,113.17234 C59.9914894,87.6659574 56.0723404,69.5 56.0723404,69.5 L67.9510638,59.9 L67.9808511,59.9468085 L68.3234043,59.6042553 L68.3276596,59.5914894 L68.3276596,59.5914894 L78.1808511,49.7553191 C79.5276596,48.3893617 79.5276596,46.1914894 78.1808511,44.8361702 L34.9489362,1.62340426 C33.6021277,0.272340426 31.3978723,0.272340426 30.0553191,1.62340426 L19.8595745,11.812766 L19.8702128,11.812766 L19.8702128,11.812766 Z" id="Shape"></path>
                </g>
            </g>
        </g>
    </g>
</svg>