<?xml version="1.0" encoding="UTF-8" standalone="no"?>
<svg width="300px" height="300px" viewBox="0 0 300 300" version="1.1" xmlns="http://www.w3.org/2000/svg" xmlns:xlink="http://www.w3.org/1999/xlink">
    <!-- Generator: Sketch 3.6.1 (26313) - http://www.bohemiancoding.com/sketch -->
    <title>students</title>
    <desc>Created with Sketch.</desc>
    <defs></defs>
    <g id="B2B" stroke="none" stroke-width="1" fill="none" fill-rule="evenodd">
        <g id="students" fill="#C555B6">
            <g id="noun_12736_cc" transform="translate(10.000000, 49.000000)">
                <g id="Group">
                    <g id="Shape">
                        <path d="M226.454667,146.313262 L245.211556,136.517815 L245.211556,93.2680615 L226.454667,103.271723 L226.454667,146.313262 Z"></path>
                        <path d="M139.996889,148.184092 C138.512889,148.184092 137.041333,147.8236 135.691111,147.105723 L43.9133333,98.1378154 L43.9133333,141.0768 L139.996889,191.452492 L194.497333,162.995354 L194.497333,120.326738 L144.299556,147.105723 C142.952444,147.8236 141.474667,148.184092 139.996889,148.184092 L139.996889,148.184092 Z"></path>
                        <path d="M213.711556,95.1761846 L160.328,67.0484615 C160.496,61.3831385 157.590222,55.8359077 152.251556,52.9737231 C149.930667,51.7244308 147.426222,51.1308615 144.965333,51.1308615 C139.455556,51.1308615 134.12,54.0862769 131.338667,59.2730154 C127.300444,66.7780923 130.131556,76.1353538 137.644889,80.1660308 C139.944,81.3966769 142.414222,81.9778154 144.847111,81.9778154 C148.064,81.9778154 151.215556,80.9678154 153.853778,79.1000923 L203.628444,105.297938 L203.628444,193.923108 C203.628444,197.698954 206.692889,200.763138 210.476,200.763138 C214.259111,200.763138 217.320444,197.698954 217.320444,193.923108 L217.320444,101.202 C217.323556,98.6816615 215.939111,96.3664308 213.711556,95.1761846 L213.711556,95.1761846 Z"></path>
                        <path d="M139.996889,1.818 L2.83111111,65.8799692 L139.996889,139.063015 L193.778667,110.366585 L153.794667,89.4238462 C150.966667,90.5270769 147.942667,91.102 144.847111,91.102 C140.852444,91.102 136.870222,90.1013231 133.329778,88.2056308 C127.543111,85.1041538 123.315111,79.9360615 121.417333,73.6616308 C119.525778,67.3809846 120.185333,60.7491692 123.290222,54.9688615 C127.577333,46.9789846 135.884,42.0191077 144.965333,42.0191077 C148.994222,42.0191077 153.004444,43.0353231 156.566667,44.9403385 C162.988,48.3836615 167.412,54.3721846 168.902222,61.3023385 L218.026667,87.1396923 C220.932444,88.6935385 223.188,91.0864615 224.647111,93.9020308 L277.165778,65.8830769 L139.996889,1.818 L139.996889,1.818 Z"></path>
                    </g>
                </g>
            </g>
        </g>
    </g>
</svg>