<?xml version="1.0" encoding="UTF-8" standalone="no"?>
<svg width="300px" height="300px" viewBox="0 0 300 300" version="1.1" xmlns="http://www.w3.org/2000/svg" xmlns:xlink="http://www.w3.org/1999/xlink">
    <!-- Generator: Sketch 3.6.1 (26313) - http://www.bohemiancoding.com/sketch -->
    <title>teams</title>
    <desc>Created with Sketch.</desc>
    <defs></defs>
    <g id="B2B" stroke="none" stroke-width="1" fill="none" fill-rule="evenodd">
        <g id="teams">
            <g id="Group-2" transform="translate(10.000000, 10.000000)">
                <g id="Logo2" transform="translate(63.762376, 0.000000)" stroke-width="2.77227723" stroke="#FFFFFF" fill="#C555B6">
                    <g id="Group">
                        <path d="M27.7116832,1.9960396 C13.2431683,1.9960396 1.51366337,13.7255446 1.51366337,28.1940594 L1.51366337,188.03802 C1.51366337,202.506535 13.2431683,214.23604 27.7116832,214.23604 L188.600792,214.23604 C203.069307,214.23604 214.801584,202.506535 214.801584,188.03802 L214.801584,28.1968317 C214.801584,13.7255446 203.072079,1.9960396 188.603564,1.9960396 L27.7116832,1.9960396 Z M26.4419802,127.15604 C26.4364356,120.14495 26.4336634,113.136634 26.4447525,106.128317 C26.4475248,103.464158 27.8807921,101.950495 30.52,101.94495 C43.1782178,101.922772 55.8364356,101.936634 68.4946535,101.942178 C68.6443564,101.942178 68.7940594,101.975446 69.2126733,102.025347 C68.9160396,102.613069 68.7164356,103.053861 68.4752475,103.472475 C63.3160396,112.418614 58.1429703,121.356436 53.0114851,130.319208 C52.5013861,131.211881 51.949703,131.558416 50.8990099,131.550099 C44.1928713,131.497426 37.4839604,131.527921 30.7778218,131.522376 C27.8225743,131.516832 26.4419802,130.122376 26.4419802,127.15604 L26.4419802,127.15604 Z M54.4613861,173.139802 C50.2475248,176.064554 45.9893069,178.928317 41.7089109,181.75604 C41.2348515,182.069307 40.3477228,182.263366 39.9318812,182.027723 C39.449505,181.750495 39.2720792,180.935446 39.1279208,180.66099 C39.7627723,175.293861 40.3089109,170.342574 40.9576238,165.405149 C41.1988119,163.569901 42.6653465,162.807525 44.2871287,163.686337 C47.6887129,165.535446 51.0487129,167.459406 54.3726733,169.444356 C55.969505,170.403564 56.0110891,172.064158 54.4613861,173.139802 L54.4613861,173.139802 Z M58.7556436,165.524356 C58.4534653,165.416238 57.7520792,165.266535 57.1532673,164.933861 C54.0732673,163.21505 51.009901,161.468515 47.9631683,159.691485 C45.7287129,158.388515 45.2047525,156.428515 46.5049505,154.171881 C61.3005941,128.503366 76.1073267,102.843168 90.9168317,77.1857426 C92.2613861,74.8570297 94.2047525,74.330297 96.5390099,75.6388119 C99.5275248,77.3132673 102.50495,79.0071287 105.471287,80.7231683 C107.863762,82.1065347 108.382178,84.0443564 106.98495,86.4673267 C92.2170297,112.091485 77.4380198,137.710099 62.6673267,163.334257 C61.88,164.703762 60.790495,165.54099 58.7556436,165.524356 L58.7556436,165.524356 Z M91.590495,131.430891 C91.8871287,130.876436 92.1061386,130.438416 92.350099,130.014257 C97.4815842,121.112475 102.63802,112.227327 107.722376,103.297822 C108.337822,102.216634 109.019802,101.85901 110.211881,101.903366 C112.576634,101.989307 114.952475,101.886733 117.317228,101.967129 C117.794059,101.983762 118.50099,102.355248 118.689505,102.757228 C123.150099,112.171881 127.55802,121.614257 131.968713,131.053861 C132.004752,131.134257 131.974257,131.245149 131.974257,131.430891 L91.590495,131.430891 L91.590495,131.430891 Z M145.400396,138.494653 C143.332277,134.749307 141.114455,131.07604 139.251485,127.230891 C127.552475,103.07604 116.845941,78.4720792 106.610693,53.6657426 C105.160792,50.150495 104.304158,46.3857426 103.211881,42.7235644 C103.012277,42.0582178 103.00396,41.3346535 102.967921,41.0629703 C102.967921,40.3283168 102.88198,39.990099 102.984554,39.729505 C103.247921,39.0641584 103.450297,38.1770297 103.965941,37.8748515 C104.331881,37.6613861 105.354851,38.0827723 105.767921,38.5207921 C107.140198,39.9873267 108.556832,41.470495 109.621386,43.1560396 C113.463762,49.2467327 117.125941,55.4510891 120.93505,61.5639604 C134.904554,83.9833663 147.318812,107.270495 159.569505,130.651881 C161.03604,133.451881 160.836436,135.583762 158.485545,137.721188 C155.982178,139.994455 153.154455,141.738218 149.531089,141.230891 C147.745743,140.984158 146.295842,140.116436 145.400396,138.494653 L145.400396,138.494653 Z M159.785743,160.778218 C157.756436,157.717624 155.782574,154.615446 153.875248,151.48 C152.63604,149.439604 153.262574,147.396436 155.37505,146.251485 C157.143762,145.29505 158.934653,144.371881 160.74495,143.498614 C162.879604,142.467327 165.07802,143.096634 166.206337,145.150891 C167.828119,148.103366 169.350099,151.111287 170.877624,154.113663 C171.165941,154.68198 171.279604,155.341782 171.404356,155.729901 C171.304554,157.54297 170.725149,158.837624 169.383366,159.683168 C168.063762,160.514851 166.730297,161.324356 165.363564,162.075644 C163.289901,163.21505 161.088713,162.743762 159.785743,160.778218 L159.785743,160.778218 Z M175.745743,180.868911 C173.824554,179.879208 171.809109,179.058614 169.954455,177.963564 C167.589703,176.571881 165.904158,174.506535 164.947723,171.908911 C163.905347,169.078416 164.831287,165.995644 167.426139,164.537426 C168.928713,163.691881 170.658614,163.076436 172.360792,162.793663 C175.149703,162.330693 177.420198,163.628119 178.57901,166.10099 C179.651881,168.388119 180.494653,170.888713 180.85505,173.378218 C181.359604,176.879604 181.323564,180.461386 181.514851,183.965545 C179.335842,182.790099 177.55604,181.800396 175.745743,180.868911 L175.745743,180.868911 Z M189.87604,127.205941 C189.873267,130.080792 188.473267,131.514059 185.64,131.519604 C179.338614,131.530693 173.034455,131.522376 167.118416,131.522376 C161.856634,121.550495 156.76396,111.900198 151.54099,102.005941 C152.214653,101.975446 152.683168,101.933861 153.154455,101.933861 C163.89703,101.931089 174.642376,101.925545 185.38495,101.933861 C188.50099,101.936634 189.87604,103.336634 189.878812,106.474851 C189.878812,113.383366 189.881584,120.294653 189.87604,127.205941 L189.87604,127.205941 Z" id="Shape"></path>
                    </g>
                </g>
                <g id="divider" transform="translate(36.039604, 27.722772)" fill="#FFFFFF">
                    <g id="Group">
                        <path d="M27.7116832,1.9960396 C13.2431683,1.9960396 1.51366337,13.7255446 1.51366337,28.1940594 L1.51366337,188.03802 C1.51366337,202.506535 13.2431683,214.23604 27.7116832,214.23604 L188.600792,214.23604 C203.069307,214.23604 214.801584,202.506535 214.801584,188.03802 L214.801584,28.1968317 C214.801584,13.7255446 203.072079,1.9960396 188.603564,1.9960396 L27.7116832,1.9960396 Z" id="Shape"></path>
                    </g>
                </g>
                <g id="Logo2" transform="translate(36.039604, 27.722772)" stroke-width="2.77227723" stroke="#FFFFFF" fill="#C555B6">
                    <g id="Group">
                        <path d="M27.7116832,1.9960396 C13.2431683,1.9960396 1.51366337,13.7255446 1.51366337,28.1940594 L1.51366337,188.03802 C1.51366337,202.506535 13.2431683,214.23604 27.7116832,214.23604 L188.600792,214.23604 C203.069307,214.23604 214.801584,202.506535 214.801584,188.03802 L214.801584,28.1968317 C214.801584,13.7255446 203.072079,1.9960396 188.603564,1.9960396 L27.7116832,1.9960396 Z M26.4419802,127.15604 C26.4364356,120.14495 26.4336634,113.136634 26.4447525,106.128317 C26.4475248,103.464158 27.8807921,101.950495 30.52,101.94495 C43.1782178,101.922772 55.8364356,101.936634 68.4946535,101.942178 C68.6443564,101.942178 68.7940594,101.975446 69.2126733,102.025347 C68.9160396,102.613069 68.7164356,103.053861 68.4752475,103.472475 C63.3160396,112.418614 58.1429703,121.356436 53.0114851,130.319208 C52.5013861,131.211881 51.949703,131.558416 50.8990099,131.550099 C44.1928713,131.497426 37.4839604,131.527921 30.7778218,131.522376 C27.8225743,131.516832 26.4419802,130.122376 26.4419802,127.15604 L26.4419802,127.15604 Z M54.4613861,173.139802 C50.2475248,176.064554 45.9893069,178.928317 41.7089109,181.75604 C41.2348515,182.069307 40.3477228,182.263366 39.9318812,182.027723 C39.449505,181.750495 39.2720792,180.935446 39.1279208,180.66099 C39.7627723,175.293861 40.3089109,170.342574 40.9576238,165.405149 C41.1988119,163.569901 42.6653465,162.807525 44.2871287,163.686337 C47.6887129,165.535446 51.0487129,167.459406 54.3726733,169.444356 C55.969505,170.403564 56.0110891,172.064158 54.4613861,173.139802 L54.4613861,173.139802 Z M58.7556436,165.524356 C58.4534653,165.416238 57.7520792,165.266535 57.1532673,164.933861 C54.0732673,163.21505 51.009901,161.468515 47.9631683,159.691485 C45.7287129,158.388515 45.2047525,156.428515 46.5049505,154.171881 C61.3005941,128.503366 76.1073267,102.843168 90.9168317,77.1857426 C92.2613861,74.8570297 94.2047525,74.330297 96.5390099,75.6388119 C99.5275248,77.3132673 102.50495,79.0071287 105.471287,80.7231683 C107.863762,82.1065347 108.382178,84.0443564 106.98495,86.4673267 C92.2170297,112.091485 77.4380198,137.710099 62.6673267,163.334257 C61.88,164.703762 60.790495,165.54099 58.7556436,165.524356 L58.7556436,165.524356 Z M91.590495,131.430891 C91.8871287,130.876436 92.1061386,130.438416 92.350099,130.014257 C97.4815842,121.112475 102.63802,112.227327 107.722376,103.297822 C108.337822,102.216634 109.019802,101.85901 110.211881,101.903366 C112.576634,101.989307 114.952475,101.886733 117.317228,101.967129 C117.794059,101.983762 118.50099,102.355248 118.689505,102.757228 C123.150099,112.171881 127.55802,121.614257 131.968713,131.053861 C132.004752,131.134257 131.974257,131.245149 131.974257,131.430891 L91.590495,131.430891 L91.590495,131.430891 Z M145.400396,138.494653 C143.332277,134.749307 141.114455,131.07604 139.251485,127.230891 C127.552475,103.07604 116.845941,78.4720792 106.610693,53.6657426 C105.160792,50.150495 104.304158,46.3857426 103.211881,42.7235644 C103.012277,42.0582178 103.00396,41.3346535 102.967921,41.0629703 C102.967921,40.3283168 102.88198,39.990099 102.984554,39.729505 C103.247921,39.0641584 103.450297,38.1770297 103.965941,37.8748515 C104.331881,37.6613861 105.354851,38.0827723 105.767921,38.5207921 C107.140198,39.9873267 108.556832,41.470495 109.621386,43.1560396 C113.463762,49.2467327 117.125941,55.4510891 120.93505,61.5639604 C134.904554,83.9833663 147.318812,107.270495 159.569505,130.651881 C161.03604,133.451881 160.836436,135.583762 158.485545,137.721188 C155.982178,139.994455 153.154455,141.738218 149.531089,141.230891 C147.745743,140.984158 146.295842,140.116436 145.400396,138.494653 L145.400396,138.494653 Z M159.785743,160.778218 C157.756436,157.717624 155.782574,154.615446 153.875248,151.48 C152.63604,149.439604 153.262574,147.396436 155.37505,146.251485 C157.143762,145.29505 158.934653,144.371881 160.74495,143.498614 C162.879604,142.467327 165.07802,143.096634 166.206337,145.150891 C167.828119,148.103366 169.350099,151.111287 170.877624,154.113663 C171.165941,154.68198 171.279604,155.341782 171.404356,155.729901 C171.304554,157.54297 170.725149,158.837624 169.383366,159.683168 C168.063762,160.514851 166.730297,161.324356 165.363564,162.075644 C163.289901,163.21505 161.088713,162.743762 159.785743,160.778218 L159.785743,160.778218 Z M175.745743,180.868911 C173.824554,179.879208 171.809109,179.058614 169.954455,177.963564 C167.589703,176.571881 165.904158,174.506535 164.947723,171.908911 C163.905347,169.078416 164.831287,165.995644 167.426139,164.537426 C168.928713,163.691881 170.658614,163.076436 172.360792,162.793663 C175.149703,162.330693 177.420198,163.628119 178.57901,166.10099 C179.651881,168.388119 180.494653,170.888713 180.85505,173.378218 C181.359604,176.879604 181.323564,180.461386 181.514851,183.965545 C179.335842,182.790099 177.55604,181.800396 175.745743,180.868911 L175.745743,180.868911 Z M189.87604,127.205941 C189.873267,130.080792 188.473267,131.514059 185.64,131.519604 C179.338614,131.530693 173.034455,131.522376 167.118416,131.522376 C161.856634,121.550495 156.76396,111.900198 151.54099,102.005941 C152.214653,101.975446 152.683168,101.933861 153.154455,101.933861 C163.89703,101.931089 174.642376,101.925545 185.38495,101.933861 C188.50099,101.936634 189.87604,103.336634 189.878812,106.474851 C189.878812,113.383366 189.881584,120.294653 189.87604,127.205941 L189.87604,127.205941 Z" id="Shape"></path>
                    </g>
                </g>
                <g id="divider" transform="translate(0.000000, 63.762376)" fill="#FFFFFF">
                    <g id="Group">
                        <path d="M27.7116832,1.9960396 C13.2431683,1.9960396 1.51366337,13.7255446 1.51366337,28.1940594 L1.51366337,188.03802 C1.51366337,202.506535 13.2431683,214.23604 27.7116832,214.23604 L188.600792,214.23604 C203.069307,214.23604 214.801584,202.506535 214.801584,188.03802 L214.801584,28.1968317 C214.801584,13.7255446 203.072079,1.9960396 188.603564,1.9960396 L27.7116832,1.9960396 Z" id="Shape"></path>
                    </g>
                </g>
                <g id="Logo1" transform="translate(0.000000, 63.762376)" stroke-width="2.77227723" stroke="#FFFFFF" fill="#C555B6">
                    <g id="Group">
                        <path d="M27.7116832,1.9960396 C13.2431683,1.9960396 1.51366337,13.7255446 1.51366337,28.1940594 L1.51366337,188.03802 C1.51366337,202.506535 13.2431683,214.23604 27.7116832,214.23604 L188.600792,214.23604 C203.069307,214.23604 214.801584,202.506535 214.801584,188.03802 L214.801584,28.1968317 C214.801584,13.7255446 203.072079,1.9960396 188.603564,1.9960396 L27.7116832,1.9960396 Z M26.4419802,127.15604 C26.4364356,120.14495 26.4336634,113.136634 26.4447525,106.128317 C26.4475248,103.464158 27.8807921,101.950495 30.52,101.94495 C43.1782178,101.922772 55.8364356,101.936634 68.4946535,101.942178 C68.6443564,101.942178 68.7940594,101.975446 69.2126733,102.025347 C68.9160396,102.613069 68.7164356,103.053861 68.4752475,103.472475 C63.3160396,112.418614 58.1429703,121.356436 53.0114851,130.319208 C52.5013861,131.211881 51.949703,131.558416 50.8990099,131.550099 C44.1928713,131.497426 37.4839604,131.527921 30.7778218,131.522376 C27.8225743,131.516832 26.4419802,130.122376 26.4419802,127.15604 L26.4419802,127.15604 Z M54.4613861,173.139802 C50.2475248,176.064554 45.9893069,178.928317 41.7089109,181.75604 C41.2348515,182.069307 40.3477228,182.263366 39.9318812,182.027723 C39.449505,181.750495 39.2720792,180.935446 39.1279208,180.66099 C39.7627723,175.293861 40.3089109,170.342574 40.9576238,165.405149 C41.1988119,163.569901 42.6653465,162.807525 44.2871287,163.686337 C47.6887129,165.535446 51.0487129,167.459406 54.3726733,169.444356 C55.969505,170.403564 56.0110891,172.064158 54.4613861,173.139802 L54.4613861,173.139802 Z M58.7556436,165.524356 C58.4534653,165.416238 57.7520792,165.266535 57.1532673,164.933861 C54.0732673,163.21505 51.009901,161.468515 47.9631683,159.691485 C45.7287129,158.388515 45.2047525,156.428515 46.5049505,154.171881 C61.3005941,128.503366 76.1073267,102.843168 90.9168317,77.1857426 C92.2613861,74.8570297 94.2047525,74.330297 96.5390099,75.6388119 C99.5275248,77.3132673 102.50495,79.0071287 105.471287,80.7231683 C107.863762,82.1065347 108.382178,84.0443564 106.98495,86.4673267 C92.2170297,112.091485 77.4380198,137.710099 62.6673267,163.334257 C61.88,164.703762 60.790495,165.54099 58.7556436,165.524356 L58.7556436,165.524356 Z M91.590495,131.430891 C91.8871287,130.876436 92.1061386,130.438416 92.350099,130.014257 C97.4815842,121.112475 102.63802,112.227327 107.722376,103.297822 C108.337822,102.216634 109.019802,101.85901 110.211881,101.903366 C112.576634,101.989307 114.952475,101.886733 117.317228,101.967129 C117.794059,101.983762 118.50099,102.355248 118.689505,102.757228 C123.150099,112.171881 127.55802,121.614257 131.968713,131.053861 C132.004752,131.134257 131.974257,131.245149 131.974257,131.430891 L91.590495,131.430891 L91.590495,131.430891 Z M145.400396,138.494653 C143.332277,134.749307 141.114455,131.07604 139.251485,127.230891 C127.552475,103.07604 116.845941,78.4720792 106.610693,53.6657426 C105.160792,50.150495 104.304158,46.3857426 103.211881,42.7235644 C103.012277,42.0582178 103.00396,41.3346535 102.967921,41.0629703 C102.967921,40.3283168 102.88198,39.990099 102.984554,39.729505 C103.247921,39.0641584 103.450297,38.1770297 103.965941,37.8748515 C104.331881,37.6613861 105.354851,38.0827723 105.767921,38.5207921 C107.140198,39.9873267 108.556832,41.470495 109.621386,43.1560396 C113.463762,49.2467327 117.125941,55.4510891 120.93505,61.5639604 C134.904554,83.9833663 147.318812,107.270495 159.569505,130.651881 C161.03604,133.451881 160.836436,135.583762 158.485545,137.721188 C155.982178,139.994455 153.154455,141.738218 149.531089,141.230891 C147.745743,140.984158 146.295842,140.116436 145.400396,138.494653 L145.400396,138.494653 Z M159.785743,160.778218 C157.756436,157.717624 155.782574,154.615446 153.875248,151.48 C152.63604,149.439604 153.262574,147.396436 155.37505,146.251485 C157.143762,145.29505 158.934653,144.371881 160.74495,143.498614 C162.879604,142.467327 165.07802,143.096634 166.206337,145.150891 C167.828119,148.103366 169.350099,151.111287 170.877624,154.113663 C171.165941,154.68198 171.279604,155.341782 171.404356,155.729901 C171.304554,157.54297 170.725149,158.837624 169.383366,159.683168 C168.063762,160.514851 166.730297,161.324356 165.363564,162.075644 C163.289901,163.21505 161.088713,162.743762 159.785743,160.778218 L159.785743,160.778218 Z M175.745743,180.868911 C173.824554,179.879208 171.809109,179.058614 169.954455,177.963564 C167.589703,176.571881 165.904158,174.506535 164.947723,171.908911 C163.905347,169.078416 164.831287,165.995644 167.426139,164.537426 C168.928713,163.691881 170.658614,163.076436 172.360792,162.793663 C175.149703,162.330693 177.420198,163.628119 178.57901,166.10099 C179.651881,168.388119 180.494653,170.888713 180.85505,173.378218 C181.359604,176.879604 181.323564,180.461386 181.514851,183.965545 C179.335842,182.790099 177.55604,181.800396 175.745743,180.868911 L175.745743,180.868911 Z M189.87604,127.205941 C189.873267,130.080792 188.473267,131.514059 185.64,131.519604 C179.338614,131.530693 173.034455,131.522376 167.118416,131.522376 C161.856634,121.550495 156.76396,111.900198 151.54099,102.005941 C152.214653,101.975446 152.683168,101.933861 153.154455,101.933861 C163.89703,101.931089 174.642376,101.925545 185.38495,101.933861 C188.50099,101.936634 189.87604,103.336634 189.878812,106.474851 C189.878812,113.383366 189.881584,120.294653 189.87604,127.205941 L189.87604,127.205941 Z" id="Shape"></path>
                    </g>
                </g>
            </g>
        </g>
    </g>
</svg>